<svg width="22" height="21" viewBox="0 0 22 21" fill="none" xmlns="http://www.w3.org/2000/svg">
<path d="M15.2544 6.26316V5.69362C15.2544 3.10141 13.153 1 10.5608 1V1C7.96859 1 5.86719 3.10141 5.86719 5.69362V6.26316" stroke="black" stroke-width="2" stroke-linecap="round"/>
<path fill-rule="evenodd" clip-rule="evenodd" d="M0.87868 6.08962C0 6.9683 0 8.38251 0 11.2109V13.0004C0 16.7716 0 18.6573 1.17157 19.8288C2.34315 21.0004 4.22877 21.0004 8.00001 21.0004H13.1213C16.8925 21.0004 18.7782 21.0004 19.9497 19.8288C21.1213 18.6573 21.1213 16.7716 21.1213 13.0004V11.2109C21.1213 8.38251 21.1213 6.9683 20.2426 6.08962C19.3639 5.21094 17.9497 5.21094 15.1213 5.21094H6C3.17157 5.21094 1.75736 5.21094 0.87868 6.08962ZM10.487 13.7073C11.3257 13.7073 12.0072 13.0268 12.0072 12.1854C12.0072 11.3441 11.3257 10.6636 10.487 10.6636C9.6483 10.6636 8.9668 11.3441 8.9668 12.1854C8.9668 13.0268 9.6483 13.7073 10.487 13.7073ZM14.0072 12.1854C14.0072 13.756 12.9796 15.0865 11.5604 15.5406V17.842H9.56039V15.584C8.06578 15.1771 6.9668 13.8097 6.9668 12.1854C6.9668 10.2404 8.54285 8.66357 10.487 8.66357C12.4312 8.66357 14.0072 10.2404 14.0072 12.1854Z" fill="black"/>
</svg>
